HIERARCHY
ROOT Hips
{
 OFFSET 0.000000 0.000000 0.000000
 CHANNELS 6 Xposition Yposition Zposition Yrotation Xrotation Zrotation
 JOINT Chest
 {
  OFFSET 0.000000 9.585900 0.002600
  CHANNELS 3 Yrotation Xrotation Zrotation
  JOINT Chest2
  {
   OFFSET 0.000000 9.601200 -0.005300
   CHANNELS 3 Yrotation Xrotation Zrotation
   JOINT Chest3
   {
    OFFSET 0.000000 9.561800 0.000000
    CHANNELS 3 Yrotation Xrotation Zrotation
    JOINT Chest4
    {
     OFFSET 0.000000 9.552100 0.000000
     CHANNELS 3 Yrotation Xrotation Zrotation
     JOINT Neck
     {
      OFFSET 0.000000 14.453000 0.000000
      CHANNELS 3 Yrotation Xrotation Zrotation
      JOINT Head
      {
       OFFSET 0.000000 8.936500 -0.011300
       CHANNELS 3 Yrotation Xrotation Zrotation
       End Site
       {
        OFFSET 0.000000 17.073600 -0.006000
       }
      }
     }
     JOINT RightCollar
     {
      OFFSET -2.921100 9.558500 0.000000
      CHANNELS 3 Yrotation Xrotation Zrotation
      JOINT RightShoulder
      {
       OFFSET -13.519700 0.000000 0.000000
       CHANNELS 3 Yrotation Xrotation Zrotation
       JOINT RightElbow
       {
        OFFSET 0.000000 -29.696600 0.000000
        CHANNELS 3 Yrotation Xrotation Zrotation
        JOINT RightWrist
        {
         OFFSET 0.000000 -24.004700 0.000000
         CHANNELS 3 Yrotation Xrotation Zrotation
         End Site
         {
          OFFSET 0.000000 -17.728500 0.000000
         }
        }
       }
      }
     }
     JOINT LeftCollar
     {
      OFFSET 2.921100 9.558500 0.000000
      CHANNELS 3 Yrotation Xrotation Zrotation
      JOINT LeftShoulder
      {
       OFFSET 13.519700 0.000000 0.000000
       CHANNELS 3 Yrotation Xrotation Zrotation
       JOINT LeftElbow
       {
        OFFSET 0.000000 -29.696600 0.000000
        CHANNELS 3 Yrotation Xrotation Zrotation
        JOINT LeftWrist
        {
         OFFSET 0.000000 -24.004700 0.000000
         CHANNELS 3 Yrotation Xrotation Zrotation
         End Site
         {
          OFFSET 0.000000 -17.728500 0.000000
         }
        }
       }
      }
     }
    }
   }
  }
 }
 JOINT RightHip
 {
  OFFSET -7.771700 -0.012900 -0.001300
  CHANNELS 3 Yrotation Xrotation Zrotation
  JOINT RightKnee
  {
   OFFSET 0.000000 -40.869800 0.001200
   CHANNELS 3 Yrotation Xrotation Zrotation
   JOINT RightAnkle
   {
    OFFSET 0.000000 -39.717900 0.002100
    CHANNELS 3 Yrotation Xrotation Zrotation
    JOINT RightToe
    {
     OFFSET 0.000000 -4.965400 11.033500
     CHANNELS 3 Yrotation Xrotation Zrotation
     End Site
     {
      OFFSET 0.000000 -1.423100 5.872300
     }
    }
   }
  }
 }
 JOINT LeftHip
 {
  OFFSET 7.771700 -0.012900 -0.001300
  CHANNELS 3 Yrotation Xrotation Zrotation
  JOINT LeftKnee
  {
   OFFSET 0.000000 -40.869800 0.001200
   CHANNELS 3 Yrotation Xrotation Zrotation
   JOINT LeftAnkle
   {
    OFFSET 0.000000 -39.717900 0.002100
    CHANNELS 3 Yrotation Xrotation Zrotation
    JOINT LeftToe
    {
     OFFSET 0.000000 -4.965400 11.033500
     CHANNELS 3 Yrotation Xrotation Zrotation
     End Site
     {
      OFFSET 0.000000 -1.423100 5.872300
     }
    }
   }
  }
 }
}
MOTION
Frames: 8
Frame Time: 0.008333
-18.921240 60.842354 29.058649 173.964014 -14.225521 2.173339 -3.896087 11.478731 -0.611577 -0.213325 0.848309 0.026936 -0.516347 1.394990 0.028008 -3.395177 10.440152 -0.023437 1.611553 17.705587 0.283366 1.645830 -7.095644 -0.072690 3.382456 6.925004 -2.706704 -3.880462 -13.555341 -5.255923 -56.441844 -78.123787 69.234106 -1.525673 1.209220 -24.854146 -7.060947 3.695761 -5.840814 18.244953 -6.424605 2.168911 39.420458 -86.634686 -54.380510 -8.644393 5.113827 -1.054153 -10.569812 -56.223925 -2.713705 -23.177204 72.195468 -20.270942 1.081815 -5.922309 -3.190201 0.145698 -0.545811 0.058890 5.793973 -52.721347 -7.833009 28.782203 71.610895 27.149408 -19.780793 -16.463550 1.530542 0.357425 0.644960 0.177982
-18.934336 60.838173 29.081034 173.858537 -14.209326 2.169030 -3.846821 11.442700 -0.599647 -0.206642 0.852948 0.028834 -0.493858 1.407876 0.030165 -3.378742 10.449514 -0.022821 1.600705 17.720172 0.288524 1.665755 -7.091816 -0.079382 3.350593 6.939060 -2.712342 -3.957721 -13.394991 -5.195939 -56.283690 -78.059620 69.146622 -1.536064 1.200684 -24.847118 -7.097495 3.738685 -5.828431 18.290189 -6.390618 2.155407 40.693519 -86.604172 -55.781117 -8.699454 5.075516 -1.223354 -10.537249 -56.231056 -2.661416 -23.080253 72.147625 -20.169010 1.134986 -5.915956 -3.190618 0.111035 -0.496911 0.042301 5.860286 -52.747976 -7.791749 28.720639 71.618101 27.081745 -19.688042 -16.401643 1.542847 0.302405 0.597859 0.150417
-18.945990 60.835684 29.094752 173.853838 -14.248011 2.141305 -3.896073 11.455159 -0.594350 -0.268841 0.833487 0.021061 -0.447104 1.430935 0.035804 -3.360611 10.478520 -0.018795 1.644721 17.721547 0.282960 1.666843 -7.076822 -0.075581 3.256124 6.971082 -2.735904 -3.932805 -13.268331 -5.136440 -56.207552 -78.005791 69.130472 -1.545462 1.190109 -24.834178 -7.080875 3.773068 -5.819310 18.362532 -6.315365 2.105235 42.560817 -86.594071 -57.813043 -8.747411 5.029364 -1.395459 -10.572068 -56.188509 -2.626387 -23.052405 72.120755 -20.138648 1.119270 -5.860873 -3.197487 0.129664 -0.533366 0.049604 5.818409 -52.725717 -7.751313 28.731631 71.621776 27.086901 -19.610803 -16.432342 1.522222 0.380951 0.632938 0.172483
-18.951294 60.832408 29.109257 173.843075 -14.282458 2.082969 -3.929926 11.462357 -0.556883 -0.268309 0.836237 0.021266 -0.458657 1.430391 0.033975 -3.339499 10.504813 -0.014030 1.652689 17.743349 0.286447 1.674378 -7.052634 -0.073546 3.194824 6.987004 -2.746170 -3.949410 -13.127981 -5.083059 -56.185553 -77.965313 69.161652 -1.553432 1.175068 -24.812527 -7.114246 3.841557 -5.792615 18.467393 -6.315661 2.014375 44.198906 -86.533142 -59.606912 -8.786680 4.979875 -1.566677 -10.647784 -56.142447 -2.533318 -23.019159 72.099200 -20.102975 1.129722 -5.840285 -3.192704 0.117265 -0.539608 0.042389 5.738134 -52.709817 -7.664472 28.770611 71.624774 27.114937 -19.453393 -16.445071 1.496237 0.477384 0.641973 0.196532
-18.957489 60.830088 29.118179 173.764986 -14.345371 2.058033 -3.875444 11.514051 -0.527515 -0.288436 0.820385 0.017403 -0.457673 1.434894 0.034294 -3.334280 10.528050 -0.012798 1.613579 17.775181 0.298673 1.665375 -7.005031 -0.062172 3.153383 6.993646 -2.749694 -3.991244 -12.993695 -5.033779 -56.186099 -77.937685 69.218938 -1.560321 1.156088 -24.800133 -7.107896 3.873266 -5.780397 18.529088 -6.314809 1.946401 45.693098 -86.442215 -61.258296 -8.816343 4.926438 -1.718896 -10.620648 -56.072994 -2.495505 -22.957747 72.082143 -20.031529 1.161127 -5.807848 -3.188596 0.083228 -0.557510 0.030948 5.737813 -52.657544 -7.594554 28.826575 71.630341 27.164115 -19.406461 -16.445913 1.487658 0.537646 0.634942 0.216597
-18.975172 60.828321 29.123463 173.675382 -14.420506 2.116047 -3.823207 11.571906 -0.579581 -0.303567 0.802084 0.016817 -0.457062 1.439159 0.034509 -3.332695 10.549642 -0.014233 1.628836 17.790091 0.299516 1.630421 -6.981298 -0.045957 3.108766 7.004707 -2.750638 -4.037854 -12.882321 -4.988563 -56.187628 -77.925101 69.281251 -1.565024 1.136672 -24.799729 -7.087661 3.896005 -5.776575 18.578769 -6.321388 1.879538 46.997276 -86.342298 -62.725992 -8.838428 4.866999 -1.849039 -10.457743 -56.007737 -2.599271 -22.917475 72.063616 -19.984366 1.145773 -5.804329 -3.196295 0.099797 -0.543033 0.039286 5.849977 -52.587260 -7.628984 28.805495 71.638088 27.157000 -19.702889 -16.389361 1.542415 0.391167 0.599509 0.183091
-18.993673 60.826981 29.125400 173.578976 -14.513304 2.193264 -3.809045 11.592843 -0.660932 -0.276205 0.833713 0.020782 -0.456816 1.443118 0.034728 -3.351920 10.547999 -0.012925 1.659706 17.830238 0.292002 1.621153 -6.972124 -0.042926 3.121669 7.043072 -2.759337 -4.131507 -12.794884 -4.941494 -56.268338 -77.956155 69.459388 -1.583028 1.144346 -24.839398 -7.048198 3.943894 -5.785107 18.628635 -6.346240 1.807413 48.141451 -86.240040 -64.027918 -8.854607 4.802835 -1.970356 -10.258876 -55.930120 -2.737783 -22.888927 72.061612 -19.951832 1.139744 -5.853722 -3.199841 0.108222 -0.485577 0.043989 5.984257 -52.499349 -7.675257 28.755815 71.646303 27.134963 -20.127860 -16.279951 1.618424 0.143901 0.522839 0.113955
-18.999919 60.824374 29.130127 173.529083 -14.597305 2.194979 -3.808171 11.622702 -0.668911 -0.248991 0.869081 0.023103 -0.456809 1.445010 0.034851 -3.365982 10.539986 -0.011375 1.646300 17.856347 0.291970 1.634292 -6.961639 -0.051734 3.113667 7.072332 -2.765056 -4.232843 -12.735911 -4.902094 -56.280404 -77.973919 69.570197 -1.574625 1.133164 -24.872730 -7.042658 3.993200 -5.782826 18.687554 -6.398828 1.727942 49.181248 -86.144285 -65.210703 -8.860119 4.733228 -2.083780 -10.200748 -55.849218 -2.754689 -22.867928 72.055808 -19.925255 1.132581 -5.843306 -3.204690 0.113744 -0.483964 0.046796 5.986798 -52.429100 -7.637579 28.763362 71.658423 27.164944 -20.293261 -16.266418 1.625009 0.107436 0.514990 0.097324
